<svg id="Layer_1" enable-background="new 0 0 508.7 508.7" height="512" viewBox="0 0 508.7 508.7" width="512" xmlns="http://www.w3.org/2000/svg"><path d="m308.827 228.108-64.548-24.44c-2.375-.899-4.543-2.271-6.373-4.032l-19.759-19.016-1.921-28.379 27.849 1.205 17.102 16.459 60.949 23.077c9.7 3.673 14.585 14.513 10.913 24.212-3.667 9.685-14.497 14.592-24.212 10.914z" fill="#ffb69e"/><path d="m244.075 153.448-40.896-39.358c-7.473-7.192-19.361-6.962-26.553.509-7.192 7.473-6.964 19.361.509 26.553l41.012 39.47z" fill="#4699f2"/><ellipse cx="239.575" cy="66.434" fill="#ffb69e" rx="41.449" ry="41.449" transform="matrix(.969 -.246 .246 .969 -8.982 61.05)"/><path d="m161.352 483.476c-12.311-1.831-20.806-13.294-18.976-25.604l15.469-104.042-24.857-91.123c-3.275-12.007 3.803-24.396 15.81-27.671 12.006-3.275 24.396 3.803 27.671 15.81l26.103 95.687c.821 3.01 1.008 6.158.55 9.245l-16.167 108.722c-1.82 12.248-13.232 20.814-25.603 18.976z" fill="#414b82"/><path d="m26.996 482.81c-11.942-3.503-18.784-16.024-15.281-27.967l58.472-199.348 29.452-20.343 15.281 27.967-59.957 204.41c-3.509 11.962-16.045 18.778-27.967 15.281z" fill="#5f6e9b"/><path d="m206.203 108.28-17.054-7.208c-15.312-6.472-32.631-6.256-47.777.594s-26.745 19.714-31.997 35.486l-39.189 118.343 68.841 20.675c20.004 6.008 41.165-4.95 47.802-24.755l35.463-105.82c5.494-14.74-1.599-31.191-16.089-37.315z" fill="#64afff"/><path d="m15.888 124.989 421.972 118.607c2.287.643 3.62 3.018 2.977 5.305-.628 2.232-2.914 3.554-5.149 3.018l-426.113-102.74c-6.712-1.618-10.842-8.372-9.223-15.084 1.618-6.712 8.372-10.842 15.084-9.224.135.033.319.081.452.118z" fill="#a56941"/><path d="m63.593 171.779c-.05 0-.099 0-.149 0-10.371-.081-18.713-8.554-18.632-18.925l.621-79.715c.109-13.996 14.997-22.98 27.436-16.518l40.658 21.123s9.334 15.021 4.552 24.224c-4.781 9.203-18.754 10.721-18.754 10.721l-16.574-8.611-.382 49.067c-.081 10.322-8.473 18.634-18.776 18.634z" fill="#ffb69e"/><path d="m159.816 101.793-46.289-24.049-14.203 34.946 43.176 22.431c9.205 4.783 20.541 1.196 25.322-8.006 4.782-9.204 1.197-20.541-8.006-25.322z" fill="#4699f2"/><path d="m508.7 405.12v-107.372l-179.437.366 33.496 175.338c1.139 5.962 6.353 10.275 12.423 10.275h45.404c6.497 0 11.842-4.933 12.585-11.387 4.365-37.955 36.626-67.22 75.529-67.22z" fill="#783c28"/><path d="m297.695 246.289c-7.36 0-12.641 7.093-10.53 14.144l9.419 31.464c1.393 4.652 5.674 7.839 10.53 7.839h201.586v-53.447z" fill="#965028"/></svg>