<svg height="512" viewBox="0 0 54 60" width="512" xmlns="http://www.w3.org/2000/svg"><g id="Page-1" fill="none" fill-rule="evenodd"><g id="013---Golf" fill-rule="nonzero"><path id="Shape" d="m24.74 44.39-.51.76-3.23 4.85h-4l-3.74-5.61c3.0268683 1.8411307 6.7527764 2.120016 10.02.75h.01c.0322947-.0186677.065689-.0353649.1-.05h.01c.4607803-.2052582.9083151-.439045 1.34-.7z" fill="#02a9f4"/><path id="Shape" d="m21 50v6l-2 3-2-3v-6z" fill="#0377bc"/><path id="Shape" d="m30 35c.0022211 3.8326097-1.9905656 7.3900749-5.26 9.39-.4316849.260955-.8792197.4947418-1.34.7h-.01c-.034311.0146351-.0677053.0313323-.1.05h-.01c-3.2672236 1.370016-6.9931317 1.0911307-10.02-.75-.26-.16-.52-.34-.77-.52-4.18066458-3.0694469-5.6493162-8.6421117-3.52448675-13.3733441s7.26578745-7.3354756 12.33732905-6.2496921c5.0715417 1.0857834 8.6956423 5.5665675 8.6971577 10.7530362z" fill="#f5f5f5"/><path id="Shape" d="m19 24c-.5020055.0039684-1.0031606.0420562-1.5.114 4.6029261.6363856 8.3094887 4.0964693 9.2606088 8.6447971.95112 4.5483279-1.0583808 9.2037218-5.0206088 11.6312029-.4316849.260955-.8792197.4947418-1.34.7h-.01c-.034311.0146351-.0677053.0313323-.1.05h-.01c-.9031231.3747995-1.8521275.627688-2.822.752 1.97298.2775409 3.9842935.0177491 5.822-.752h.01c.0322947-.0186677.065689-.0353649.1-.05h.01c.4607803-.2052582.9083151-.439045 1.34-.7 4.2093085-2.568419 6.1950859-7.6242248 4.8588855-12.3707628-1.3362005-4.7465379-5.667858-8.0239192-10.5988855-8.0192372z" fill="#cfd8dc"/><path id="Shape" d="m51.89 20.67-1.91 10.7c-1.31 7.31-8.33 11.69-15.11 12.94-3.5089562.6404611-7.0740142.9219131-10.64.84l.51-.76c4.1302213-2.525052 6.1242021-7.453463 4.911751-12.1401012-1.212451-4.6866383-5.3463071-8.0297548-10.1828828-8.2350625s-9.2388742 2.7754577-10.84413396 7.342487c-1.60525978 4.5670294-.03611156 9.6466915 3.86526576 12.5126767-10.22-1.62-12.82-14.26-9.25-22.39 2.39075456-5.1661928 8.3514889-7.6262475 13.69-5.65l22.75 9.23c.5640553.2303091 1.2023311.1909499 1.7338166-.1069155.5314854-.2978655.8982138-.8217505.9961834-1.4230845l.8-4.89c.2455888-1.1317566.8964333-2.1346972 1.83-2.82 1.0637687-.7651194 2.4166399-1.0077539 3.68-.66.8880091.2322463 1.6815021.7356075 2.27 1.44.9522655 1.1255122 1.2889142 2.6479125.9 4.07z" fill="#9e9e9e"/><path id="Shape" d="m8 35c-.00048224-5.4935116 4.0569753-10.1429308 9.5-10.886-3.1522958-.4596675-6.3481962.4795905-8.75052844 2.5717336s-3.77172814 5.1287103-3.74947156 8.3142664c-.00020924 2.4405709.81611757 4.8110516 2.319 6.734 1.52457437 1.1214611 3.2994186 1.8546012 5.171 2.136-2.82805327-2.0693259-4.49669224-5.365724-4.49-8.87z" fill="#707070"/><path id="Shape" d="m13.93 15.83 22.75 9.23c.7109291.2879759 1.5238543.1451122 2.094-.368l-21.844-8.862c-1.6626954-.6605758-3.4710208-.867636-5.24-.6.7678942.1100928 1.5198882.3115198 2.24.6z" fill="#707070"/><path id="Shape" d="m50.99 16.6c-.5884979-.7043925-1.3819909-1.2077537-2.27-1.44-.8759662-.2368796-1.8039747-.1949357-2.655.12.7482395.259787 1.4130346.7156465 1.925 1.32.9522655 1.1255122 1.2889142 2.6479125.9 4.07l-1.91 10.7c-1.31 7.31-8.33 11.69-15.11 12.94-2.5163605.4613464-5.063904.7324471-7.621.811l-.019.029c3.5659858.0819131 7.1310438-.1995389 10.64-.84 6.78-1.25 13.8-5.63 15.11-12.94l1.91-10.7c.3889142-1.4220875.0522655-2.9444878-.9-4.07z" fill="#707070"/><path id="Shape" d="m52.96 4.47-1.97 12.13c-.5884979-.7043925-1.3819909-1.2077537-2.27-1.44-1.2633601-.3477539-2.6162313-.1051194-3.68.66l2.01-12.31c.2252472-1.35118584 1.3355047-2.3792021 2.7-2.5h.01c.9162948-.07259754 1.8153029.27886567 2.4394028.95367372s.9044075 1.59847979.7605972 2.50632628z" fill="#ef314c"/><path id="Shape" d="m6.9 24.1c-.33850301.000043-.6540489-.1711633-.83854329-.4549697-.18449439-.2838065-.21288894-.6416815-.07545671-.9510303 1.34422381-2.7867761 4.1619742-4.5610734 7.256-4.569.8776265-.005245 1.74797.1594513 2.563.485.3385012.1287396.5809435.4304358.6338077.7887127.0528642.3582768-.0921123.7171371-.3790064.9381546-.2868941.2210174-.6708653.2696479-1.0038013.1271327-.5772034-.2287297-1.1931477-.3438373-1.814-.339-2.301336.0120118-4.400502 1.3167421-5.43 3.375-.15839045.3629292-.5160178.5982103-.912.6z" fill="#f5f5f5"/><g fill="#000"><circle id="Oval" cx="19" cy="41" r="1"/><circle id="Oval" cx="19" cy="37" r="1"/><circle id="Oval" cx="19" cy="33" r="1"/><circle id="Oval" cx="19" cy="29" r="1"/><circle id="Oval" cx="15" cy="39" r="1"/><circle id="Oval" cx="15" cy="35" r="1"/><circle id="Oval" cx="11" cy="37" r="1"/><circle id="Oval" cx="11" cy="33" r="1"/><circle id="Oval" cx="27" cy="37" r="1"/><circle id="Oval" cx="27" cy="33" r="1"/><circle id="Oval" cx="15" cy="31" r="1"/><circle id="Oval" cx="23" cy="39" r="1"/><circle id="Oval" cx="23" cy="35" r="1"/><circle id="Oval" cx="23" cy="31" r="1"/><path id="Shape" d="m16.168 56.555 2 3c.1854732.2781551.4976789.4452244.832.4452244s.6465268-.1670693.832-.4452244l2-3c.1092599-.1645007.1676876-.3575206.168-.555v-5.7l3.479-5.218c4.4840222-2.8762566 6.535022-8.3643793 5.0363693-13.4764579-1.4986527-5.1120785-6.1881461-8.6241638-11.5153693-8.6241638s-10.01671659 3.5120853-11.51536931 8.6241638c-1.49865271 5.1120786.55234713 10.6002013 5.03636931 13.4764579l3.479 5.218v5.7c.0003124.1974794.0587401.3904993.168.555zm3.832-.855-1 1.5-1-1.5v-4.7h2zm-11-20.7c0-5.5228475 4.4771525-10 10-10s10 4.4771525 10 10-4.4771525 10-10 10c-5.5203344-.0060624-9.99393763-4.4796656-10-10zm10 12c1.0383011-.0038675 2.0716704-.1430396 3.074-.414l-1.609 2.414h-2.93l-1.609-2.414c1.0023296.2709604 2.0356989.4101325 3.074.414z"/><path id="Shape" d="m2.325 21.077c-2.558 5.811-2.017 13.309 1.317 18.234.30983174.4578441.93215594.5778317 1.39.268s.57783174-.9321559.268-1.39c-2.971-4.389-3.441-11.089-1.145-16.304 2.1935103-4.6501708 7.5627628-6.8706165 12.4-5.128l22.751 9.229c.845159.3428139 1.8003707.2825441 2.5957384-.1637801.7953676-.4463242 1.3445084-1.2302287 1.4922616-2.1302199l.79-4.822c.2105401-.9961805.8188533-1.8631351 1.684-2.4.7828334-.4664045 1.7229949-.5904335 2.6-.343.8926243.2369796 1.6532152.8214677 2.112 1.623.475356.8329173.5929695 1.822891.326 2.744l-1.906 10.7c-1.3 7.247-8.519 11.065-14.311 12.133-1.461.276-3 .486-4.564.627-.5522847.0243005-.9803005.4917153-.956 1.044s.4917153.9803005 1.044.956h.09c1.632-.146 3.232-.366 4.752-.653 6.413-1.191 14.43-5.501 15.909-13.755l1.891-10.615c.3862815-1.4093728.1910337-2.914798-.542-4.179-.079-.137-.183-.253-.272-.381l1.906-11.742c.3200797-2.1606306-1.1548399-4.17763796-3.3108206-4.52767035-2.1559808-.35003238-4.1932617 1.0967547-4.5731794 3.24767035l-1.951 11.951c-.954956.8295281-1.6173275 1.9445843-1.889 3.18l-.8 4.89c-.0494766.2997017-.2324938.5606682-.4974184.709275-.2649247.1486067-.5830338.1687419-.8645816.054725l-22.756-9.234c-5.840609-2.1909097-12.38120514.5061038-14.98 6.177zm45.712-17.406c.1910084-1.07247701 1.2073706-1.79316886 2.2826459-1.61860054 1.0752753.17456833 1.8114414 1.17977887 1.6533541 2.25760054l-1.7 10.439c-.4074853-.2402405-.8444831-.4264688-1.3-.554-.8708482-.2304625-1.7857849-.2373417-2.66-.02z"/><path id="Shape" d="m34.311 41.363c5.167-.953 11.6-4.28 12.716-10.522.0974782-.5437243-.2642757-1.0635217-.808-1.1609999-.5437243-.0974783-1.0635217.2642756-1.161.8079999-.938 5.236-6.571 8.071-11.109 8.908-.5071196.094702-.8589702.5596322-.8123341 1.0734063.046636.5137741.476451.9077513.9923341.9095937.0610218.0000895.1219298-.005265.182-.016z"/><path id="Shape" d="m27 4.032c-.2317971-.12890498-.5053092-.16044448-.7603615-.08767956s-.4707502.24387315-.5996385.47567956l-5 9c-.2684104.4826969-.0946968 1.0915896.388 1.36.4826969.2684103 1.0915896.0946968 1.36-.388l5-9c.128905-.23179713.1604445-.50530923.0876796-.76036152-.072765-.25505229-.2438732-.47075019-.4756796-.59963848z"/><path id="Shape" d="m35.165 2.126c-.2317971-.12890498-.5053092-.16044448-.7603615-.08767956s-.4707502.24387315-.5996385.47567956l-7.17 12.906c-.2684104.4826969-.0946968 1.0915896.388 1.36.4826969.2684103 1.0915896.0946968 1.36-.388l7.17-12.906c.128905-.23179713.1604445-.50530923.0876796-.76036152-.072765-.25505229-.2438732-.47075019-.4756796-.59963848z"/><path id="Shape" d="m33.023 18.78c.2317971.128905.5053092.1604445.7603615.0876796.2550523-.072765.4707502-.2438732.5996385-.4756796l3.491-6.284c.2546059-.4811451.0775896-1.0775592-.3982771-1.3418993-.4758666-.2643401-1.0757579-.099492-1.3497229.3708993l-3.491 6.283c-.128905.2317971-.1604445.5053092-.0876796.7603615.072765.2550523.2438732.4707502.4756796.5996385z"/></g></g></g></svg>