<svg height="512" viewBox="0 0 128 128" width="512" xmlns="http://www.w3.org/2000/svg"><g id="Layer_3" data-name="Layer 3"><path d="m12.66 47.293a12.66 12.66 0 1 0 12.659 12.66 12.675 12.675 0 0 0 -12.659-12.66z" fill="#f6b493"/><path d="m21.758 51.172a15.186 15.186 0 0 0 -4.938 11.2v9.528a12.629 12.629 0 0 0 4.938-20.724z" fill="#e59a7a"/><path d="m94.3 84.694a1.75 1.75 0 0 0 -1.351-.637h-28.389a1.752 1.752 0 0 0 -1.4.693l-4.707 6.215a7.768 7.768 0 0 0 -2.207 5.412v21.5a7.939 7.939 0 0 0 7.508 8h.236a7.761 7.761 0 0 0 7.756-7.753v-18.518l5.579-5.528-.936 4.815a8.01 8.01 0 0 0 -.08 2.483l2.87 17.681a7.755 7.755 0 0 0 7.688 6.819 7.874 7.874 0 0 0 .94-.053 7.748 7.748 0 0 0 6.757-8.629c0-.024-.007-.048-.011-.072l-2.709-16.5 2.82-14.482a1.752 1.752 0 0 0 -.364-1.446z" fill="#f6b493"/><rect fill="#495766" height="41.82" rx="1.75" width="15.5" x="103.75" y="84.057"/><path d="m22.5 84.053h-12a1.75 1.75 0 0 0 -1.75 1.747v38.324a1.75 1.75 0 0 0 1.75 1.75h12a1.75 1.75 0 0 0 1.75-1.75v-22.7a1.749 1.749 0 0 0 -1.067-1.611 3.323 3.323 0 0 1 -1.812-1.836 3.883 3.883 0 0 1 .109-3l2.62-6.021a1.757 1.757 0 0 0 .146-.7v-2.456a1.75 1.75 0 0 0 -1.746-1.747z" fill="#495766"/><path d="m117.5 84.057h-12a1.75 1.75 0 0 0 -1.75 1.75v7.47h15.5v-7.47a1.75 1.75 0 0 0 -1.75-1.75z" fill="#303c47"/><path d="m22.819 84.057h-12a1.75 1.75 0 0 0 -1.75 1.75v7.47h15.5v-7.47a1.75 1.75 0 0 0 -1.75-1.75z" fill="#303c47"/><circle cx="58.965" cy="14.78" fill="#f6b493" r="10.91"/><path d="m58.965 27.44a12.66 12.66 0 1 1 12.659-12.66 12.675 12.675 0 0 1 -12.659 12.66zm0-21.819a9.16 9.16 0 1 0 9.159 9.16 9.17 9.17 0 0 0 -9.159-9.16z" fill="#f6b493"/><rect fill="#495766" height="18.44" rx="1.75" width="25.32" y="69.117"/><path d="m128 69.117h-92.88a1.75 1.75 0 0 0 -1.75 1.75v14.94a1.75 1.75 0 0 0 1.75 1.75h91.13a1.75 1.75 0 0 0 1.75-1.75z" fill="#495766"/><path d="m33.37 70.866v14.941a1.75 1.75 0 0 0 1.75 1.75h6.146l.458-1.051a1.749 1.749 0 0 0 .146-.7v-16.69h-6.75a1.75 1.75 0 0 0 -1.75 1.75z" fill="#303c47"/><g fill="#f6b493"><path d="m64.32 52.13-17.65 8.7a7.721 7.721 0 0 1 -3.41.8 7.831 7.831 0 0 1 -2.61-.45 7.692 7.692 0 0 1 -4.45-4.09 7.146 7.146 0 0 1 -.66-3.28 7.3 7.3 0 0 1 .22-1.68h1.53a1.743 1.743 0 0 1 1.75 1.81 3.753 3.753 0 0 0 .34 1.7 4.255 4.255 0 0 0 5.75 2.05l10.91-5.38a1.709 1.709 0 0 1 .77-.18z"/><path d="m97.5 42.57-.01 15.56h-3.65a23.517 23.517 0 0 0 -6.98-4.32 23.271 23.271 0 0 0 -8.21-1.67c-.18-.01-.37-.01-.55-.01h-1.07l.99-6.51a8.094 8.094 0 0 0 -3.36-7.84l-6.48 11.02a7.732 7.732 0 0 1 -3.25 3.03l-.61.3-17.65 8.7a7.721 7.721 0 0 1 -3.41.8 7.831 7.831 0 0 1 -2.61-.45 7.692 7.692 0 0 1 -4.45-4.09 7.146 7.146 0 0 1 -.66-3.28 7.3 7.3 0 0 1 .22-1.68 8.207 8.207 0 0 1 4.28-5.31l15.96-7.87 10.13-17.25a7.722 7.722 0 0 1 5.73-3.76 5.611 5.611 0 0 1 .95-.06 24.717 24.717 0 0 1 24.69 24.69z"/><path d="m97.5 42.57-.01 15.56h-3.65a23.517 23.517 0 0 0 -6.98-4.32 23.271 23.271 0 0 0 -8.21-1.67c-.18-.01-.37-.01-.55-.01h-1.07l.99-6.51a8.094 8.094 0 0 0 -3.36-7.84l-6.48 11.02a7.732 7.732 0 0 1 -3.25 3.03l-.61.3-17.65 8.7a7.721 7.721 0 0 1 -3.41.8 7.831 7.831 0 0 1 -2.61-.45 7.692 7.692 0 0 1 -4.45-4.09 7.146 7.146 0 0 1 -.66-3.28 7.3 7.3 0 0 1 .22-1.68 8.207 8.207 0 0 1 4.28-5.31l15.96-7.87 10.13-17.25a7.722 7.722 0 0 1 5.73-3.76 5.611 5.611 0 0 1 .95-.06 24.717 24.717 0 0 1 24.69 24.69z"/><path d="m36.87 69.117h91a12.705 12.705 0 0 0 -12.6-10.987h-21.43a23.517 23.517 0 0 0 -6.98-4.32 23.271 23.271 0 0 0 -8.21-1.67c-.18-.01-.37-.01-.55-.01h-13.78l-17.65 8.7a7.721 7.721 0 0 1 -3.41.8 7.831 7.831 0 0 1 -2.61-.45 7.692 7.692 0 0 1 -4.45-4.09 7.146 7.146 0 0 1 -.66-3.28 7.3 7.3 0 0 1 .22-1.68h-3.7a10.247 10.247 0 0 0 -10.24 10.24v23.07l-3.54 8.14a7.324 7.324 0 0 0 .11 6.29 6.847 6.847 0 0 0 4.72 3.59 7.115 7.115 0 0 0 8-4.06l5.61-12.9a1.649 1.649 0 0 0 .15-.69z"/></g><path d="m78.65 52.14a23.271 23.271 0 0 1 8.21 1.67 23.517 23.517 0 0 1 6.98 4.32h3.65v-5h-1.845a28.507 28.507 0 0 0 -6.928-3.962 28.13 28.13 0 0 0 -9.9-2.025c-.239-.011-.485-.013-.722-.013h-.305l-.76 5h1.07c.18 0 .37 0 .55.01z" fill="#e59a7a"/><path d="m36.87 69.117h91a12.705 12.705 0 0 0 -12.6-10.987h-21.43a23.517 23.517 0 0 0 -6.98-4.32 23.271 23.271 0 0 0 -8.21-1.67c-.18-.01-.37-.01-.55-.01h-13.78l-17.65 8.7a7.721 7.721 0 0 1 -3.41.8 7.831 7.831 0 0 1 -2.61-.45 7.692 7.692 0 0 1 -4.45-4.09 7.146 7.146 0 0 1 -.66-3.28 7.3 7.3 0 0 1 .22-1.68h-3.7a10.247 10.247 0 0 0 -10.24 10.24v23.07l-3.54 8.14a7.324 7.324 0 0 0 .11 6.29 6.847 6.847 0 0 0 4.72 3.59 7.115 7.115 0 0 0 8-4.06l5.61-12.9a1.649 1.649 0 0 0 .15-.69z" fill="#f6b493"/><path d="m36.87 69.117h91a12.705 12.705 0 0 0 -12.6-10.987h-21.43a23.517 23.517 0 0 0 -6.98-4.32 23.271 23.271 0 0 0 -8.21-1.67c-.18-.01-.37-.01-.55-.01h-13.78l-17.65 8.7a7.721 7.721 0 0 1 -3.41.8 7.831 7.831 0 0 1 -2.61-.45 7.692 7.692 0 0 1 -4.45-4.09 7.146 7.146 0 0 1 -.66-3.28 7.3 7.3 0 0 1 .22-1.68h-3.7a10.247 10.247 0 0 0 -10.24 10.24v23.07l-3.54 8.14a7.324 7.324 0 0 0 .11 6.29 6.847 6.847 0 0 0 4.72 3.59 7.115 7.115 0 0 0 8-4.06l5.61-12.9a1.649 1.649 0 0 0 .15-.69z" fill="#f6b493"/><path d="m43.26 66.63a12.655 12.655 0 0 0 5.621-1.315l18.272-9.006a12.726 12.726 0 0 0 4.815-4.156v-.023h-7.648l-17.65 8.7a7.721 7.721 0 0 1 -3.41.8 7.831 7.831 0 0 1 -2.61-.45 7.692 7.692 0 0 1 -4.45-4.09 7.146 7.146 0 0 1 -.66-3.28 7.3 7.3 0 0 1 .22-1.68h-3.7a10.253 10.253 0 0 0 -1.4.108 11.737 11.737 0 0 0 -.112 1.4 12.089 12.089 0 0 0 1.107 5.529 12.666 12.666 0 0 0 7.331 6.733 12.806 12.806 0 0 0 4.274.73z" fill="#e59a7a"/><path d="m61.057 87.532-2.6 3.433a7.64 7.64 0 0 0 -1.173 1.567h36.14l.974-5z" fill="#e59a7a"/><path d="m117.488 101.333a1.75 1.75 0 0 0 -1.75 1.75v2.667a1.75 1.75 0 0 0 3.5 0v-2.667a1.75 1.75 0 0 0 -1.75-1.75z"/><path d="m115.258 58.127h-17.779l.009-15.56a24.472 24.472 0 0 0 -4.988-14.887 1.75 1.75 0 0 0 -2.791 2.112 21 21 0 0 1 4.282 12.773l-.009 15.561h-.152a23.665 23.665 0 0 0 -13.293-5.869l.932-6.113a11.6 11.6 0 0 0 -6.752-12.327 1.749 1.749 0 0 0 -2.218.712l-7.352 12.5a4.226 4.226 0 0 1 -1.784 1.653l-18.25 9a4.249 4.249 0 0 1 -5.743-2.042 3.762 3.762 0 0 1 -.342-1.732 4.572 4.572 0 0 1 2.554-3.952l16.418-8.1a1.75 1.75 0 0 0 .734-.683l10.4-17.7a4.26 4.26 0 0 1 3.2-2.065 2.948 2.948 0 0 1 .464-.028 21.076 21.076 0 0 1 11.853 3.62 1.75 1.75 0 0 0 1.961-2.9 24.568 24.568 0 0 0 -13.812-4.223 7.762 7.762 0 0 0 -1.632.185 12.705 12.705 0 1 0 -7.985 8.638l-7.2 12.251-15.953 7.868a8.158 8.158 0 0 0 -4.259 5.308h-3.723a10.2 10.2 0 0 0 -7.567 3.365 12.649 12.649 0 1 0 -20.543 13.625h-2.2a1.75 1.75 0 0 0 -1.75 1.75v14.94a1.75 1.75 0 0 0 1.75 1.75h7v36.57a1.75 1.75 0 0 0 1.75 1.75h12a1.75 1.75 0 0 0 1.75-1.75v-20.527c.124.007.249.02.372.02a7.1 7.1 0 0 0 6.49-4.22l5.153-11.838h24.774l-2.581 3.408a7.768 7.768 0 0 0 -2.207 5.412v21.5a7.939 7.939 0 0 0 7.508 8h.236a7.761 7.761 0 0 0 7.756-7.753v-18.523l5.578-5.527-.938 4.821a8.059 8.059 0 0 0 -.078 2.48l2.87 17.681a7.755 7.755 0 0 0 7.688 6.819 7.885 7.885 0 0 0 .94-.053 7.759 7.759 0 0 0 6.757-8.628c0-.024-.007-.048-.011-.073l-2.71-16.5 2.545-13.069h9.358v36.57a1.75 1.75 0 0 0 1.75 1.75h12a1.75 1.75 0 0 0 1.75-1.75v-11.127a1.75 1.75 0 0 0 -3.5 0v9.377h-8.5v-34.82h8.5v8.277a1.75 1.75 0 0 0 3.5 0v-8.277h7a1.75 1.75 0 0 0 1.75-1.75v-14.94a12.742 12.742 0 0 0 -12.73-12.74zm-65.465-43.347a9.16 9.16 0 1 1 9.16 9.16 9.17 9.17 0 0 1 -9.16-9.16zm15.121 37.045a7.714 7.714 0 0 0 3.253-3.025l6.482-11.025a8.1 8.1 0 0 1 3.358 7.838l-.992 6.51h-12.715zm-61.426 8.128a9.16 9.16 0 1 1 9.159 9.16 9.169 9.169 0 0 1 -9.159-9.16zm18.319 8.714v.45h-.45q.231-.217.451-.45zm-18.319 3.95h18.32v11.436h-11.353-6.967zm8.75 49.76v-34.82h8.5v.335l-2.478 5.686a7.37 7.37 0 0 0 .362 6.717 6.689 6.689 0 0 0 2.117 2.184v19.9zm56.519-24.743a1.749 1.749 0 0 0 -.519 1.243v19.25a4.261 4.261 0 0 1 -4.387 4.251 4.416 4.416 0 0 1 -4.113-4.5v-21.5a4.242 4.242 0 0 1 1.262-3.013 1.806 1.806 0 0 0 .169-.192l4.254-5.617h13.162l-.081.416zm22.328 20.017a4.249 4.249 0 1 1 -8.449.916l-2.868-17.667a4.44 4.44 0 0 1 .048-1.338l1.917-9.862 2.167-2.143h6.917l-2.477 12.705a1.73 1.73 0 0 0 -.009.618zm33.4-33.594h-87.627v-11.44h87.63zm-89.38-14.94a1.75 1.75 0 0 0 -1.75 1.75v14.575l-5.455 12.552a3.548 3.548 0 0 1 -4.052 2.044 3.6 3.6 0 0 1 -2.371-5.062l3.689-8.47v-.007a1.737 1.737 0 0 0 .106-.332 1.754 1.754 0 0 0 .037-.357v-23.443a6.747 6.747 0 0 1 6.74-6.74h3.646a7.377 7.377 0 0 0 .493 1.466 7.681 7.681 0 0 0 4.448 4.082 7.811 7.811 0 0 0 6.027-.349l10.544-5.2h20.881c.1 0 .209 0 .4.009a20.156 20.156 0 0 1 13.461 5.512 1.749 1.749 0 0 0 1.2.479h22.109a9.249 9.249 0 0 1 9.065 7.49z"/></g></svg>