<svg height="512" viewBox="0 0 64 64" width="512" xmlns="http://www.w3.org/2000/svg"><g id="playground-playing_field-coronavirus-virus-outbreck" data-name="playground-playing field-coronavirus-virus-outbreck"><path d="m60.46 9a3.994 3.994 0 0 1 -3.46 6h-10a4 4 0 0 1 0-8 4 4 0 0 1 4-4 2.961 2.961 0 0 1 .52.04 3.966 3.966 0 0 1 2.97 2.04 1.7 1.7 0 0 1 .51-.08 2.006 2.006 0 0 1 2 2 3.98 3.98 0 0 1 3.46 2z" fill="#2488ff"/><path d="m61 11a4 4 0 0 1 -4 4h-3a4 4 0 0 0 0-8 2.006 2.006 0 0 0 -2-2 1.7 1.7 0 0 0 -.51.08 4.008 4.008 0 0 0 -1.99-1.78 3.756 3.756 0 0 1 1.5-.3 2.961 2.961 0 0 1 .52.04 3.966 3.966 0 0 1 2.97 2.04 1.7 1.7 0 0 1 .51-.08 2.006 2.006 0 0 1 2 2 4.01 4.01 0 0 1 4 4z" fill="#006df0"/><path d="m60.41 57.59a1.955 1.955 0 0 1 .59 1.41 2.006 2.006 0 0 1 -2 2h-6l-14.6-10.04a6 6 0 0 1 -2.09-2.51l-3.31-7.45h-4v-4h5.65a2 2 0 0 1 1.85 1.26l2.85 7.11a6.013 6.013 0 0 0 2.08 2.65l12.57 8.98h5a1.955 1.955 0 0 1 1.41.59z" fill="#a78966"/><path d="m61 59a2.006 2.006 0 0 1 -2 2h-.27a2 2 0 0 0 .27-1 2.015 2.015 0 0 0 -2-2h-5l-12.57-8.98a6.013 6.013 0 0 1 -2.08-2.65l-2.85-7.11a2 2 0 0 0 -1.85-1.26h-3.65v-1h5.65a2 2 0 0 1 1.85 1.26l2.85 7.11a6.013 6.013 0 0 0 2.08 2.65l12.57 8.98h5a2.015 2.015 0 0 1 2 2z" fill="#957856"/><path d="m54.83 31.17a4.008 4.008 0 1 1 -2.83-1.17 4.025 4.025 0 0 1 2.83 1.17z" fill="#d43237"/><path d="m52.46 15a3.994 3.994 0 0 1 -3.46 6h-10a4 4 0 0 1 0-8 4 4 0 0 1 4-4 2.961 2.961 0 0 1 .52.04 3.966 3.966 0 0 1 2.97 2.04 1.7 1.7 0 0 1 .51-.08 2.006 2.006 0 0 1 2 2 3.98 3.98 0 0 1 3.46 2z" fill="#57a4ff"/><path d="m31 15h-2-24-2l14-12z" fill="#ff3051"/><path d="m25 41h4v20h-4z" fill="#806749"/><path d="m5 15h24v26h-24z" fill="#fee9ab"/><path d="m31 15h-4l-12-10.29 2-1.71z" fill="#cd2a00"/><path d="m25 15h4v26h-4z" fill="#ffde55"/><path d="m21 29v12h-8v-12a4 4 0 1 1 8 0z" fill="#46f8ff"/><path d="m21 29v12h-4v-12a4.025 4.025 0 0 0 -1.17-2.83 4.225 4.225 0 0 0 -.83-.63 3.995 3.995 0 0 1 6 3.46z" fill="#00d7df"/><path d="m5 41h4v20h-4z" fill="#806749"/><path d="m56 34a3.994 3.994 0 0 1 -6 3.46 4.225 4.225 0 0 0 .83-.63 4.008 4.008 0 0 0 0-5.66 4.225 4.225 0 0 0 -.83-.63 3.995 3.995 0 0 1 6 3.46z" fill="#ab2300"/><path d="m27 41h2v20h-2z" fill="#6a563d"/><path d="m7 41h2v20h-2z" fill="#6a563d"/><path d="m53 17a4 4 0 0 1 -4 4h-3a4 4 0 0 0 0-8 2.006 2.006 0 0 0 -2-2 1.7 1.7 0 0 0 -.51.08 4.008 4.008 0 0 0 -1.99-1.78 3.756 3.756 0 0 1 1.5-.3 2.961 2.961 0 0 1 .52.04 3.966 3.966 0 0 1 2.97 2.04 1.7 1.7 0 0 1 .51-.08 2.006 2.006 0 0 1 2 2 4.01 4.01 0 0 1 4 4z" fill="#2488ff"/><path d="m59 56h-4.68l-12.31-8.79a4.946 4.946 0 0 1 -1.73-2.21l-2.85-7.12a2.987 2.987 0 0 0 -2.78-1.88h-4.65v-20h1a1 1 0 0 0 .65-1.76l-14-12a1 1 0 0 0 -1.3 0l-14 12a1 1 0 0 0 .65 1.76h1v45a1 1 0 0 0 1 1h4a1 1 0 0 0 1-1v-19h2v19h2v-3h6v3h2v-19h2v19a1 1 0 0 0 1 1h4a1 1 0 0 0 1-1v-19h2.35l3.05 6.86a6.9 6.9 0 0 0 2.43 2.92l14.6 10.04a.988.988 0 0 0 .57.18h6a3 3 0 0 0 0-6zm-51 4h-2v-18h2zm12-4h-6v-2h6zm0-4h-6v-2h6zm0-4h-6v-2h6zm0-4h-6v-2h6zm0-4h-6v-11a3 3 0 0 1 6 0zm8 20h-2v-18h2zm0-20h-6v-11a5 5 0 0 0 -10 0v11h-6v-24h22zm-22.3-26 11.3-9.68 11.3 9.68zm53.3 46h-5.69l-14.35-9.86a5.019 5.019 0 0 1 -1.73-2.09l-3.32-7.46a.987.987 0 0 0 -.91-.59h-3v-2h4.65a.986.986 0 0 1 .92.63l2.85 7.11a6.916 6.916 0 0 0 2.43 3.09l12.57 8.98a1 1 0 0 0 .58.19h5a1 1 0 0 1 0 2z"/><path d="m57.85 6.07a2.969 2.969 0 0 0 -2.87-2.07 4.989 4.989 0 0 0 -8.9 2.08 5.014 5.014 0 0 0 -3.07 1.92h-.01a5.021 5.021 0 0 0 -4.92 4.08 5 5 0 0 0 .92 9.92h10a5 5 0 0 0 5-5 4.714 4.714 0 0 0 -.11-1h3.11a5 5 0 0 0 .85-9.93zm-8.85 13.93h-10a3 3 0 0 1 0-6 1 1 0 0 0 1-1 2.986 2.986 0 0 1 5.61-1.44 1 1 0 0 0 1.13.48.968.968 0 0 1 .26-.04 1 1 0 0 1 1 1 1 1 0 0 0 1 1 3 3 0 0 1 0 6zm8-6h-4.02a5 5 0 0 0 -3.13-1.93 3 3 0 0 0 -2.85-2.07h-.02a5.146 5.146 0 0 0 -1.69-1.43 2.948 2.948 0 0 1 1.71-.57 1 1 0 0 0 1-1 2.989 2.989 0 0 1 5.62-1.43 1 1 0 0 0 1.17.47.522.522 0 0 1 .21-.04 1 1 0 0 1 1 1 1 1 0 0 0 1 1 3 3 0 0 1 0 6z"/><path d="m51 33h2v2h-2z"/><path d="m60 32a1.993 1.993 0 0 0 -1.722 1h-1.378a4.961 4.961 0 0 0 -.732-1.753l.978-.978a2.027 2.027 0 0 0 .51.074 2 2 0 0 0 0-4 2 2 0 0 0 -2 2 2.021 2.021 0 0 0 .074.51l-.978.978a4.961 4.961 0 0 0 -1.752-.731v-1.378a2 2 0 1 0 -2 0v1.378a4.961 4.961 0 0 0 -1.753.732l-.978-.978a2.027 2.027 0 0 0 .074-.51 2 2 0 0 0 -2-2 2 2 0 0 0 0 4 2.021 2.021 0 0 0 .51-.074l.978.978a4.961 4.961 0 0 0 -.731 1.752h-1.378a2 2 0 1 0 0 2h1.378a4.961 4.961 0 0 0 .732 1.753l-.978.978a2.027 2.027 0 0 0 -.51-.074 2 2 0 0 0 0 4 2 2 0 0 0 2-2 2.021 2.021 0 0 0 -.074-.51l.978-.978a4.961 4.961 0 0 0 1.752.731v1.379a2 2 0 1 0 2 0v-1.379a4.961 4.961 0 0 0 1.753-.732l.978.978a2.027 2.027 0 0 0 -.074.51 2 2 0 0 0 2 2 2 2 0 0 0 0-4 2.021 2.021 0 0 0 -.51.074l-.978-.978a4.961 4.961 0 0 0 .731-1.752h1.379a2 2 0 1 0 1.721-3zm-8 5a3 3 0 1 1 3-3 3 3 0 0 1 -3 3z"/><path d="m27 2h2v2h-2z"/><path d="m31 4h2v2h-2z"/><path d="m35 2h2v2h-2z"/><path d="m27 6h2v2h-2z"/><path d="m35 6h2v2h-2z"/><path d="m52 46h2v2h-2z"/><path d="m56 48h2v2h-2z"/><path d="m60 46h2v2h-2z"/><path d="m52 50h2v2h-2z"/><path d="m60 50h2v2h-2z"/><path d="m32 24h2v2h-2z"/><path d="m36 26h2v2h-2z"/><path d="m36 30h2v2h-2z"/><path d="m40 24h2v2h-2z"/><path d="m32 28h2v2h-2z"/><path d="m32 32h2v2h-2z"/><path d="m40 28h2v2h-2z"/></g></svg>