<svg height="512" viewBox="0 0 60 58" width="512" xmlns="http://www.w3.org/2000/svg"><g id="Page-1" fill="none" fill-rule="evenodd"><g id="028---Swimming" fill-rule="nonzero"><path id="Shape" d="m59 47v10c-9.67 0-9.67-4-19.33-4s-9.67 4-19.34 4-9.66-4-19.33-4v-10c8.68 0 9.57 3.22 16.64 3.88.81.08 1.7.12 2.69.12 9.67 0 9.67-4 19.34-4 3.2825548-.0829651 6.5411106.5803716 9.53 1.94 3.0639287 1.4337229 6.4181348 2.1387907 9.8 2.06z" fill="#9fc9d3"/><path id="Shape" d="m44.5 36.98 4.7 7.96c-2.9888894-1.3596284-6.2474452-2.0229651-9.53-1.94-9.67 0-9.67 4-19.34 4-.99 0-1.88-.04-2.69-.12l10.22-10.21c1.3401437-1.3428418 1.3401437-3.5171582 0-4.86l-.01-.01c-.4329035-.433601-.975618-.7412545-1.57-.89l-11.68-3.03c-1.8024778-.5495385-2.8463255-2.4274956-2.3614597-4.248436s2.3243763-2.9311394 4.1614597-2.511564l10.99 2.85c2.2405729.5812668 4.2846705 1.7517889 5.92 3.39l2.77 2.77z" fill="#fdd7ad"/><circle id="Oval" cx="4.5" cy="25.5" fill="#3b97d3" r="2.5"/><circle id="Oval" cx="6" cy="34" fill="#3b97d3" r="1"/><circle id="Oval" cx="30" cy="6" fill="#f3d55b" r="6"/><path id="Shape" d="m33 40c-.2651948-.0000566-.5195073-.1054506-.707-.293l-1-1c-.3789722-.3923789-.3735524-1.0160848.0121814-1.4018186s1.0094397-.3911536 1.4018186-.0121814l1 1c.2859079.2859943.3714219.7160366.216678 1.0896546-.1547439.3736179-.5192821.6172591-.923678.6173454z" fill="#f09372"/><g fill="#f29c1f"><path id="Shape" d="m34.592 18.087c-.4046724-.0000657-.7694151-.244017-.924-.618l-.768-1.848c-.2112489-.5103111.0311889-1.0952511.5415-1.3065s1.0952511.0311889 1.3065.5415l.765 1.848c.1279557.3086131.0933432.66074-.0922534.9385324-.1855967.2777924-.4976587.4445517-.8317466.4444676z"/><path id="Shape" d="m18.913 11.593c-.4781994.0014557-.8905059-.3358504-.9838203-.8048591-.0933145-.4690088.1584816-.93844541.6008203-1.1201409l1.848-.765c.3316775-.14595793.7163639-.10106216 1.0055166.11735124.2891526.2184134.4375216.57616465.3878157.9351117-.0497059.35894706-.2897082.66291786-.6273323.79453706l-1.848.766c-.1213628.0505969-.2515126.0767628-.383.077z"/><path id="Shape" d="m39.239 3.174c-.4772478.00029016-.8881898-.33670193-.9813647-.80476602s.1573876-.93673819.5983647-1.11923398l1.844-.766c.5103111-.21152503 1.0954749.03068893 1.307.54100002.211525.51031109-.0306889 1.0954749-.541 1.30699998l-1.844.768c-.1215712.04956925-.2517135.07471424-.383.074z"/><path id="Shape" d="m25.408 18.087c-.3340879.0000841-.6461499-.1666752-.8317466-.4444676-.1855966-.2777924-.2202091-.6299193-.0922534-.9385324l.765-1.848c.2112489-.5103111.7961889-.7527489 1.3065-.5415s.7527489.7961889.5415 1.3065l-.765 1.848c-.1545849.373983-.5193276.6179343-.924.618z"/><path id="Shape" d="m20.761 3.174c-.1314874-.00023718-.2616372-.02640307-.383-.077l-1.848-.765c-.5103111-.21262963-.7516296-.79868889-.539-1.309s.7986889-.75162963 1.309-.539l1.848.766c.4409771.18249579.6915396.65116989.5983647 1.11923398s-.5041169.80505618-.9813647.80476602z"/><path id="Shape" d="m41.087 11.593c-.1314874-.0002372-.2616372-.0264031-.383-.077l-1.848-.766c-.3376241-.1316192-.5776264-.43559-.6273323-.79453706-.0497059-.35894705.0986631-.7166983.3878157-.9351117.2891527-.2184134.6738391-.26330917 1.0055166-.11735124l1.848.765c.4423387.18169549.6941348.6511321.6008203 1.1201409-.0933144.4690087-.5056209.8063148-.9838203.8048591z"/></g><path id="Shape" d="m59 48c-3.4643644.082177-6.9017461-.6278731-10.05-2.076-2.9052807-1.3475078-6.0824819-2.0059455-9.284-1.924-3.2015181-.0819455-6.3787193.5764922-9.284 1.924-3.1482539 1.4481269-6.5856356 2.158177-10.05 2.076-3.4640444.0822008-6.9011064-.627854-10.049-2.076-2.90497623-1.3473568-6.08181778-2.0057909-9.283-1.924-.55228475 0-1-.4477153-1-1s.44771525-1 1-1c3.46404444-.0822008 6.90110643.627854 10.049 2.076 2.9049762 1.3473568 6.0818178 2.0057909 9.283 1.924 3.2015181.0819455 6.3787193-.5764922 9.284-1.924 3.1482539-1.4481269 6.5856356-2.158177 10.05-2.076 3.4643644-.082177 6.9017461.6278731 10.05 2.076 2.9052807 1.3475078 6.0824819 2.0059455 9.284 1.924.5522847 0 1 .4477153 1 1s-.4477153 1-1 1z" fill="#3b97d3"/><path id="Shape" d="m59 53c-3.4643644.082177-6.9017461-.6278731-10.05-2.076-2.9052807-1.3475078-6.0824819-2.0059455-9.284-1.924-3.2015181-.0819455-6.3787193.5764922-9.284 1.924-3.1482539 1.4481269-6.5856356 2.158177-10.05 2.076-3.4640444.0822008-6.9011064-.627854-10.049-2.076-2.90497623-1.3473568-6.08181778-2.0057909-9.283-1.924-.55228475 0-1-.4477153-1-1s.44771525-1 1-1c3.46404444-.0822008 6.90110643.627854 10.049 2.076 2.9049762 1.3473568 6.0818178 2.0057909 9.283 1.924 3.2015181.0819455 6.3787193-.5764922 9.284-1.924 3.1482539-1.4481269 6.5856356-2.158177 10.05-2.076 3.4643644-.082177 6.9017461.6278731 10.05 2.076 2.9052807 1.3475078 6.0824819 2.0059455 9.284 1.924.5522847 0 1 .4477153 1 1s-.4477153 1-1 1z" fill="#3b97d3"/><path id="Shape" d="m59 58c-3.4643644.082177-6.9017461-.6278731-10.05-2.076-2.9052807-1.3475078-6.0824819-2.0059455-9.284-1.924-3.2015181-.0819455-6.3787193.5764922-9.284 1.924-3.1482539 1.4481269-6.5856356 2.158177-10.05 2.076-3.4640444.0822008-6.9011064-.627854-10.049-2.076-2.90497623-1.3473568-6.08181778-2.0057909-9.283-1.924-.55228475 0-1-.4477153-1-1s.44771525-1 1-1c3.46404444-.0822008 6.90110643.627854 10.049 2.076 2.9049762 1.3473568 6.0818178 2.0057909 9.283 1.924 3.2015181.0819455 6.3787193-.5764922 9.284-1.924 3.1482539-1.4481269 6.5856356-2.158177 10.05-2.076 3.4643644-.082177 6.9017461.6278731 10.05 2.076 2.9052807 1.3475078 6.0824819 2.0059455 9.284 1.924.5522847 0 1 .4477153 1 1s-.4477153 1-1 1z" fill="#3b97d3"/><circle id="Oval" cx="3" cy="38" fill="#3b97d3" r="1"/><path id="Shape" d="m44 21c-4.4153099.0071574-7.9928426 3.5846901-8 8 .0014078.3780303.0281343.7555419.08 1.13.5624304 3.9418863 3.938192 6.8701037 7.92 6.87.17 0 .34-.01.5-.02 3.0067608-.1790802 5.6545023-2.0410154 6.84-4.81.4386653-.9990759.6634802-2.0788686.66-3.17 0-4.418278-3.581722-8-8-8z" fill="#f9c795"/><path id="Shape" d="m52 29c.0034802 1.0911314-.2213347 2.1709241-.66 3.17l-14.28-7.14c1.8024497-3.1433722 5.4925924-4.6827643 8.9945418-3.7521927 3.5019495.9305716 5.9411609 4.0987144 5.9454582 7.7221927z" fill="#e64c3c"/></g></g></svg>